<svg xmlns="http://www.w3.org/2000/svg" width="430" height="118" viewBox="0 0 430 118" role="img" aria-labelledby="title desc">
  <title id="title">DHA Sheet Metal Inc.</title>
  <desc id="desc">Clean DHA Sheet Metal Inc. wordmark.</desc>
  <rect width="430" height="118" rx="0" fill="#ffffff"/>
  <g fill="#252525">
    <path d="M22 20h46c19 0 32 12 32 30v18c0 18-13 30-32 30H22V20zm23 20v38h20c8 0 13-5 13-13V53c0-8-5-13-13-13H45z"/>
    <path d="M111 20h23v38h36V20h23v78h-23V60h-36v38h-23V20z"/>
    <path d="M237 20h24l36 78h-25l-6-15h-35l-6 15h-24l36-78zm22 46-10-25-10 25h20z"/>
  </g>
  <rect x="23" y="103" width="274" height="5" fill="#f47b20"/>
  <g font-family="Arial, Helvetica, sans-serif" fill="#252525">
    <text x="320" y="48" font-size="27" font-weight="700" letter-spacing="2">SHEET</text>
    <text x="320" y="78" font-size="27" font-weight="700" letter-spacing="2">METAL</text>
    <text x="321" y="100" font-size="16" font-weight="700" letter-spacing="4" fill="#f47b20">INC.</text>
  </g>
</svg>
